<?xml version="1.0" encoding="UTF-8"?>
<svg width="50px" height="50px" viewBox="0 0 50 50" version="1.1" xmlns="http://www.w3.org/2000/svg" xmlns:xlink="http://www.w3.org/1999/xlink">
    <!-- Generator: Sketch 47.1 (45422) - http://www.bohemiancoding.com/sketch -->
    <title>Teal Clock</title>
    <desc>Created with Sketch.</desc>
    <defs></defs>
    <g id="Symbols" stroke="none" stroke-width="1" fill="none" fill-rule="evenodd">
        <g id="AM-5-6-7" transform="translate(-30.000000, -317.000000)" fill="#60B7C0">
            <g id="Question-7" transform="translate(0.000000, 288.000000)">
                <g id="Teal-Clock" transform="translate(30.000000, 29.000000)">
                    <path d="M25,47.7267531 C12.4466667,47.7267531 2.27333333,37.5534198 2.27333333,25.0000864 C2.27333333,12.4467531 12.4466667,2.27341975 25,2.27341975 C37.5533333,2.27341975 47.7266667,12.4467531 47.7266667,25.0000864 C47.7266667,37.5534198 37.5533333,47.7267531 25,47.7267531 M25,8.64197533e-05 C11.1944444,8.64197533e-05 0,11.1945309 0,25.0000864 C0,38.8078642 11.1944444,50.0000864 25,50.0000864 C38.8055556,50.0000864 50,38.8078642 50,25.0000864 C50,11.1945309 38.8055556,8.64197533e-05 25,8.64197533e-05 M32.9533333,38.7778642 C32.41,39.0900864 32.2244444,39.7867531 32.5394444,40.3289753 C32.8522222,40.8750864 33.5488889,41.0600864 34.09,40.745642 C34.6344444,40.4328642 34.8194444,39.7384198 34.5066667,39.1945309 C34.1922222,38.650642 33.5,38.4650864 32.9533333,38.7778642 M25,27.2734198 C23.745,27.2734198 22.7266667,26.2550864 22.7266667,25.0000864 C22.7266667,23.7450864 23.745,22.7267531 25,22.7267531 C26.255,22.7267531 27.2733333,23.7450864 27.2733333,25.0000864 C27.2733333,26.2550864 26.255,27.2734198 25,27.2734198 M35.2266667,23.8634198 L29.3844444,23.8634198 C28.97,22.2773086 27.7266667,21.0273086 26.1366667,20.615642 L26.1366667,7.95341975 C26.1366667,7.32841975 25.6272222,6.81675309 25,6.81675309 C24.3727778,6.81675309 23.8633333,7.32841975 23.8633333,7.95341975 L23.8633333,20.615642 C21.9077778,21.1223086 20.4533333,22.8839753 20.4533333,25.0000864 C20.4533333,27.5111975 22.4905556,29.5461975 25,29.5461975 C27.1161111,29.5461975 28.8794444,28.0950864 29.3844444,26.1367531 L35.2266667,26.1367531 C35.8538889,26.1367531 36.3633333,25.6300864 36.3633333,25.0000864 C36.3633333,24.3728642 35.8538889,23.8634198 35.2266667,23.8634198 M39.1944444,15.4928642 C38.6505556,15.8078642 38.4627778,16.5023086 38.7777778,17.0461975 C39.09,17.5900864 39.7866667,17.775642 40.3288889,17.460642 C40.8727778,17.1478642 41.0577778,16.4534198 40.7455556,15.9095309 C40.4327778,15.365642 39.7361111,15.1784198 39.1944444,15.4928642 M25,40.9095309 C24.3727778,40.9095309 23.8633333,41.4189753 23.8633333,42.0461975 C23.8633333,42.6734198 24.3727778,43.1828642 25,43.1828642 C25.6272222,43.1828642 26.1366667,42.6734198 26.1366667,42.0461975 C26.1366667,41.4189753 25.6272222,40.9095309 25,40.9095309 M40.3288889,32.5395309 C39.7866667,32.2245309 39.09,32.4100864 38.7777778,32.9534198 C38.4627778,33.5000864 38.6505556,34.1945309 39.1944444,34.5067531 C39.7361111,34.8217531 40.4327778,34.6345309 40.7455556,34.0900864 C41.0577778,33.5467531 40.8727778,32.8523086 40.3288889,32.5395309 M10.8055556,15.4928642 C10.2616667,15.1784198 9.56722222,15.365642 9.25444444,15.9095309 C8.94222222,16.4534198 9.125,17.1478642 9.67111111,17.460642 C10.2133333,17.775642 10.91,17.5900864 11.2222222,17.0461975 C11.5372222,16.5023086 11.3494444,15.8078642 10.8055556,15.4928642 M32.9533333,11.2223086 C33.5,11.5367531 34.1922222,11.3495309 34.5066667,10.8078642 C34.8194444,10.2634198 34.6344444,9.56897531 34.09,9.25453086 C33.5488889,8.94175309 32.8522222,9.12730864 32.5394444,9.67119753 C32.2244444,10.2134198 32.41,10.9095309 32.9533333,11.2223086 M7.95333333,23.8634198 C7.32833333,23.8634198 6.81722222,24.3728642 6.81722222,25.0000864 C6.81722222,25.6300864 7.32833333,26.1367531 7.95333333,26.1367531 C8.58111111,26.1367531 9.09,25.6300864 9.09,25.0000864 C9.09,24.3728642 8.58111111,23.8634198 7.95333333,23.8634198 M15.91,9.25453086 C15.3655556,9.56897531 15.1805556,10.2634198 15.4933333,10.8078642 C15.8077778,11.3495309 16.5022222,11.5367531 17.0466667,11.2223086 C17.59,10.9095309 17.7755556,10.2134198 17.4605556,9.67119753 C17.1477778,9.12730864 16.4533333,8.94175309 15.91,9.25453086 M9.67111111,32.5395309 C9.125,32.8523086 8.94222222,33.5467531 9.25444444,34.0900864 C9.56722222,34.6345309 10.2616667,34.8217531 10.8055556,34.5067531 C11.3494444,34.1945309 11.5372222,33.5000864 11.2222222,32.9534198 C10.91,32.4100864 10.2133333,32.2245309 9.67111111,32.5395309 M17.0466667,38.7778642 C16.5022222,38.4650864 15.8077778,38.650642 15.4933333,39.1945309 C15.1805556,39.7384198 15.3655556,40.4328642 15.91,40.745642 C16.4533333,41.0600864 17.1477778,40.8750864 17.4605556,40.3289753 C17.7755556,39.7867531 17.59,39.0900864 17.0466667,38.7778642 M42.0466667,23.8634198 C41.4188889,23.8634198 40.91,24.3728642 40.91,25.0000864 C40.91,25.6300864 41.4188889,26.1367531 42.0466667,26.1367531 C42.6716667,26.1367531 43.1827778,25.6300864 43.1827778,25.0000864 C43.1827778,24.3728642 42.6716667,23.8634198 42.0466667,23.8634198" id="Clock"></path>
                </g>
            </g>
        </g>
    </g>
</svg>