<?xml version="1.0" encoding="UTF-8"?>
<svg width="50px" height="52px" viewBox="0 0 50 52" version="1.1" xmlns="http://www.w3.org/2000/svg" xmlns:xlink="http://www.w3.org/1999/xlink">
    <!-- Generator: Sketch 47.1 (45422) - http://www.bohemiancoding.com/sketch -->
    <title>Teal Database</title>
    <desc>Created with Sketch.</desc>
    <defs></defs>
    <g id="V3" stroke="none" stroke-width="1" fill="none" fill-rule="evenodd">
        <g id="Asset-Management" transform="translate(-461.000000, -1146.000000)" fill="#60B7C0">
            <g id="7-Questions" transform="translate(429.000000, 740.000000)">
                <g id="Question-3" transform="translate(0.000000, 372.000000)">
                    <g id="Teal-Database" transform="translate(32.000000, 34.000000)">
                        <g id="database">
                            <path d="M48.3975758,38.190807 L47.1078788,37.9381053 C46.5032217,37.8195088 46.027177,37.4153684 45.8021053,36.8287719 C45.5761404,36.2430877 45.6565231,35.6163509 46.020925,35.1091228 L46.8310048,33.9815439 C47.0918022,33.6184561 47.0542903,33.1148772 46.7416906,32.7964912 L44.9920255,31.0102456 C44.6892504,30.7018947 44.2132057,30.6553684 43.8595215,30.8998596 L42.7725678,31.6515789 C42.2634769,32.0064561 41.6454226,32.0630175 41.0800638,31.8112281 C40.5155981,31.5603509 40.137799,31.0585965 40.0440191,30.4355088 L39.8359171,29.0534035 C39.7698246,28.6091228 39.3947049,28.2807018 38.954386,28.2807018 L36.4803828,28.2807018 C36.0525678,28.2807018 35.6837002,28.5917895 35.6033174,29.0214737 L35.2835726,30.7228772 C35.1701435,31.326807 34.7851994,31.8084912 34.2287719,32.0438596 C33.6705582,32.2819649 33.0667943,32.2162807 32.5675279,31.8714386 L31.1635088,30.9007719 C30.8089314,30.6562807 30.3337799,30.702807 30.0310048,31.0111579 L28.2813397,32.7974035 C27.96874,33.1157895 27.9312281,33.6184561 28.1920255,33.9824561 L29.0021053,35.1100351 C29.3665072,35.6172632 29.44689,36.244 29.220925,36.8296842 C28.9958533,37.4162807 28.5198086,37.8204211 27.9151515,37.9390175 L26.6254545,38.1917193 C26.2056778,38.2738246 25.9011164,38.6496842 25.9011164,39.0875789 L25.9011164,41.6145965 C25.9011164,42.0643509 26.2226475,42.4475088 26.6585008,42.5159298 L28.0116108,42.7284912 C28.6216268,42.8242807 29.1119617,43.2101754 29.3584689,43.7867368 C29.6049761,44.3642105 29.547815,44.9936842 29.2021691,45.5155088 L28.4662201,46.6257544 C28.2259649,46.9870175 28.2715152,47.4732632 28.5742903,47.7825263 L30.3230622,49.5696842 C30.6338756,49.8880702 31.1259968,49.9254737 31.4832536,49.6609123 L32.587177,48.8334737 C33.0828708,48.4612632 33.6982456,48.3800702 34.2707496,48.6099649 C34.8450399,48.8398596 35.2407018,49.3261053 35.3568102,49.9437193 L35.6042105,51.2610526 C35.6845933,51.6889123 36.0525678,52 36.4812759,52 L38.9552791,52 C39.3955981,52 39.7707177,51.6715789 39.8377033,51.226386 L39.9841786,50.254807 C40.0779585,49.6271579 40.477193,49.1089825 41.049697,48.8663158 C41.6248804,48.6236491 42.2652632,48.7030175 42.7654226,49.0779649 L43.541563,49.66 C43.8988198,49.9272982 44.390941,49.8880702 44.7017544,49.5687719 L46.4505263,47.781614 C46.7533014,47.4723509 46.7988517,46.9870175 46.5585965,46.6248421 L45.8226475,45.5145965 C45.4770016,44.9936842 45.4198405,44.3632982 45.6663477,43.7858246 C45.9119617,43.2092632 46.4031898,42.8233684 47.0132057,42.7275789 L48.3663158,42.5150175 C48.8012759,42.4465965 49.122807,42.0634386 49.122807,41.6136842 L49.122807,39.0866667 C49.122807,38.6496842 48.8182456,38.2738246 48.3975758,38.190807 Z M47.3365231,40.8318596 L46.7407974,40.9258246 C45.5314833,41.1155789 44.5177671,41.9129123 44.0292185,43.0578246 C43.5397767,44.2036491 43.6576715,45.5045614 44.3436045,46.5381754 L44.6660287,47.0244211 L43.9800957,47.7250526 L43.8220096,47.6064561 C42.8127592,46.852 41.5221691,46.6923509 40.3664434,47.1804211 C39.2107177,47.6694035 38.4086762,48.7148772 38.218437,49.9765614 L38.1889633,50.1754386 L37.2190112,50.1754386 L37.110941,49.5979649 C36.8796172,48.3700351 36.0614992,47.365614 34.9236364,46.9094737 C33.7848804,46.4551579 32.5166188,46.6230175 31.529697,47.3601404 L31.0438278,47.7241404 L30.3578947,47.0235088 L30.680319,46.5372632 C31.366252,45.5027368 31.4832536,44.2018246 30.9947049,43.0569123 C30.5061563,41.912 29.491547,41.1146667 28.283126,40.9249123 L27.6874003,40.8318596 L27.6874003,39.8411228 L28.2527592,39.7307368 C29.4549282,39.4944561 30.4382775,38.658807 30.8848485,37.4965614 C31.3314195,36.3334035 31.1661882,35.0379649 30.4436364,34.0298947 L30.0872727,33.533614 L30.7732057,32.8329825 L31.5672089,33.3821754 C32.5559171,34.0682105 33.8089952,34.1968421 34.9138118,33.7297544 C36.0186284,33.2617544 36.8135247,32.2664561 37.0394896,31.066807 L37.2190112,30.1052632 L38.1889633,30.1052632 L38.2809569,30.7137544 C38.4667305,31.9489825 39.2473365,32.9844211 40.3682297,33.4834386 C41.4900159,33.9824561 42.7636364,33.8629474 43.7755662,33.1623158 L44.2516108,32.8329825 L44.9375439,33.533614 L44.5811802,34.0298947 C43.8577352,35.0370526 43.6933971,36.3324912 44.1399681,37.4965614 C44.5865391,38.658807 45.5707815,39.4944561 46.7720574,39.7307368 L47.3365231,39.8411228 L47.3365231,40.8318596 Z" id="Shape" fill-rule="nonzero"></path>
                            <path d="M37.5119617,35.5789474 C35.0495694,35.5789474 33.046252,37.625193 33.046252,40.1403509 C33.046252,42.6555088 35.0495694,44.7017544 37.5119617,44.7017544 C39.9743541,44.7017544 41.9776715,42.6555088 41.9776715,40.1403509 C41.9776715,37.625193 39.9743541,35.5789474 37.5119617,35.5789474 Z M37.5119617,42.877193 C36.0347049,42.877193 34.8325359,41.6492632 34.8325359,40.1403509 C34.8325359,38.6314386 36.0347049,37.4035088 37.5119617,37.4035088 C38.9892185,37.4035088 40.1913876,38.6314386 40.1913876,40.1403509 C40.1913876,41.6492632 38.9892185,42.877193 37.5119617,42.877193 Z" id="Shape" fill-rule="nonzero"></path>
                            <path d="M22.3285486,37.4035088 C21.5899203,37.4035088 20.8664753,37.3889123 20.1564274,37.3633684 C19.7223604,37.3469474 19.3034769,37.3186667 18.8801276,37.2931228 C18.618437,37.277614 18.3487081,37.2675789 18.0914833,37.2484211 C17.5288038,37.2073684 16.982201,37.1535439 16.4418501,37.0960702 C16.3400319,37.0851228 16.233748,37.0778246 16.132823,37.0668772 C15.5138756,36.9975439 14.9110048,36.9181754 14.3233174,36.8305965 C14.308134,36.8287719 14.2929506,36.8269474 14.2777671,36.8242105 C11.2544817,36.3680702 8.65990431,35.672 6.63157895,34.8454737 C6.62086124,34.8418246 6.61014354,34.8372632 6.59942584,34.8327018 C6.22519936,34.6794386 5.87419458,34.5207018 5.54015949,34.3592281 C5.50175439,34.3400702 5.46066986,34.3218246 5.42226475,34.3026667 C5.12216906,34.1548772 4.84440191,34.0034386 4.57824561,33.8492632 C4.51572568,33.8127719 4.44963317,33.777193 4.38889952,33.7397895 C4.15757576,33.6011228 3.94679426,33.4597193 3.74494418,33.3174035 C3.66813397,33.2626667 3.58864434,33.2079298 3.5154067,33.153193 C3.34481659,33.0245614 3.19208931,32.8950175 3.04561404,32.7645614 C2.9661244,32.6924912 2.88663477,32.6213333 2.81339713,32.5492632 C2.69371611,32.4306667 2.58832536,32.3111579 2.4891866,32.1916491 C2.41952153,32.1077193 2.35253589,32.0228772 2.29358852,31.9389474 C2.21499203,31.8267368 2.14800638,31.7145263 2.08816587,31.6023158 C2.0399362,31.512 1.99706539,31.4216842 1.96044657,31.3313684 C1.91668262,31.2209825 1.88185008,31.1105965 1.85684211,31.0011228 C1.82290271,30.8560702 1.78628389,30.7082807 1.78628389,30.5614035 L1.78628389,23.0743158 C1.81129187,23.0980351 1.84255183,23.1208421 1.86845295,23.1445614 C2.06405104,23.318807 2.26143541,23.4930526 2.48472089,23.6609123 C5.8491866,26.2609123 12.5772249,28.2807018 22.3285486,28.2807018 C32.039681,28.2807018 38.7498565,26.2773333 42.1286124,23.6937544 C42.3983413,23.4930526 42.6412759,23.2859649 42.8699203,23.0752281 C42.8699203,23.0752281 42.8699203,23.0752281 42.8699203,23.0752281 L42.8708134,26.4561404 C42.8708134,26.9606316 43.2700478,27.3684211 43.7639553,27.3684211 C44.2578628,27.3684211 44.6570973,26.9606316 44.6570973,26.4561404 L44.6570973,20.0701754 L44.6570973,19.6140351 L44.6570973,8.66666667 L44.6570973,8.21052632 C44.6570973,8.04449123 44.6017225,7.89761404 44.5266986,7.76350877 C43.4924402,3.84982456 35.7944498,0 22.3285486,0 C8.86264753,0 1.16376396,3.84982456 0.130398724,7.76350877 C0.0553748006,7.89761404 0,8.04449123 0,8.21052632 L0,8.66666667 L0,19.6140351 L0,20.0701754 L0,30.5614035 L0,31.0175439 L0,41.9649123 C0,42.1117895 0.0375119617,42.2504561 0.102711324,42.373614 C1.12,46.7826667 9.65129187,49.3799298 17.7958533,50.0039298 C17.8181818,50.0057544 17.8414035,50.0066667 17.8637321,50.0066667 C18.3272727,50.0066667 18.7184689,49.6426667 18.7533014,49.162807 C18.7899203,48.6601404 18.4219458,48.2222456 17.9298246,48.1848421 C8.00344498,47.424 2.21856459,44.3368421 1.81486443,41.8171228 C1.8077193,41.7760702 1.79878788,41.7368421 1.78628389,41.697614 L1.78628389,34.0216842 C1.81129187,34.0454035 1.84255183,34.0682105 1.86845295,34.0919298 C2.06405104,34.2661754 2.26143541,34.4404211 2.48472089,34.6082807 C5.8491866,37.2082807 12.5772249,39.2280702 22.3285486,39.2280702 C22.8224561,39.2280702 23.2216906,38.8202807 23.2216906,38.3157895 C23.2216906,37.8112982 22.8224561,37.4035088 22.3285486,37.4035088 Z M2.3230622,12.5867368 C2.59100478,12.8020351 2.88038278,13.0145965 3.1938756,13.2216842 C3.25907496,13.2645614 3.3323126,13.3065263 3.40019139,13.3494035 C3.66277512,13.5163509 3.94054226,13.6796491 4.23259968,13.8402105 C4.34066986,13.8995088 4.44874003,13.9578947 4.56127592,14.0162807 C4.88727273,14.1859649 5.22934609,14.3501754 5.5892823,14.5107368 C5.64822967,14.537193 5.70181818,14.5645614 5.76076555,14.5901053 C6.17964912,14.7716491 6.62443381,14.9449825 7.08797448,15.1119298 C7.21569378,15.1584561 7.34966507,15.2022456 7.48095694,15.2478596 C7.84893142,15.3746667 8.22940989,15.496 8.62328549,15.6136842 C8.76529506,15.6556491 8.9046252,15.6994386 9.05020734,15.7404912 C9.57269537,15.8882807 10.1121531,16.0287719 10.6784051,16.1583158 C10.7561085,16.1765614 10.8400638,16.1920702 10.9186603,16.2094035 C11.4179266,16.3207018 11.935949,16.4237895 12.4682616,16.5195789 C12.6486762,16.5524211 12.8317703,16.5834386 13.0157576,16.6144561 C13.5221691,16.6992982 14.043764,16.7777544 14.578756,16.8489123 C14.7162998,16.8671579 14.8484848,16.8872281 14.9869219,16.9054737 C15.6514195,16.9875789 16.3382456,17.0578246 17.045614,17.1180351 C17.2197767,17.1326316 17.4010845,17.1435789 17.5779266,17.1563509 C18.1432855,17.1983158 18.7211483,17.2329825 19.3124083,17.2603509 C19.5276555,17.270386 19.7420096,17.2804211 19.9617225,17.2877193 C20.7316108,17.3141754 21.5157895,17.3333333 22.3285486,17.3333333 C23.1413078,17.3333333 23.9254864,17.3141754 24.6953748,17.2877193 C24.9141946,17.2804211 25.1285486,17.2694737 25.344689,17.2603509 C25.935949,17.2329825 26.5138118,17.1983158 27.0791707,17.1563509 C27.2560128,17.1426667 27.4373206,17.1326316 27.6114833,17.1180351 C28.3179585,17.0587368 29.0056778,16.9875789 29.6701754,16.9054737 C29.8095056,16.8881404 29.9407974,16.8671579 30.0783413,16.8489123 C30.6133333,16.7777544 31.1340351,16.6992982 31.6413397,16.6144561 C31.825327,16.5834386 32.0084211,16.5524211 32.1888357,16.5195789 C32.7211483,16.4237895 33.2391707,16.3207018 33.738437,16.2094035 C33.8170335,16.1920702 33.9009888,16.1765614 33.9786922,16.1583158 C34.5449442,16.0287719 35.0844019,15.8882807 35.60689,15.7404912 C35.7524721,15.6994386 35.8918022,15.6565614 36.0338118,15.6136842 C36.4276874,15.4969123 36.8081659,15.3746667 37.1761404,15.2478596 C37.3074322,15.2022456 37.4414035,15.1584561 37.5691228,15.1119298 C38.0317703,14.9440702 38.4774482,14.7707368 38.8963317,14.5901053 C38.9561722,14.5645614 39.0097608,14.5362807 39.067815,14.5107368 C39.4277512,14.3501754 39.7698246,14.1859649 40.0958214,14.0162807 C40.2074641,13.9578947 40.3164274,13.8995088 40.4244976,13.8402105 C40.716555,13.6805614 40.9943222,13.5172632 41.2569059,13.3494035 C41.3247847,13.3065263 41.3980223,13.2645614 41.4632217,13.2216842 C41.7767145,13.0145965 42.0660925,12.8029474 42.3340351,12.5867368 C42.4010207,12.532 42.4608612,12.4772632 42.5251675,12.4225263 C42.6412759,12.324 42.7636364,12.226386 42.8708134,12.1269474 L42.8708134,19.6140351 C42.8708134,19.7609123 42.8341946,19.9087018 42.8002552,20.0564912 C42.7752472,20.1668772 42.7404147,20.2763509 42.6966507,20.3867368 C42.660925,20.4770526 42.6171611,20.5673684 42.5689314,20.6576842 C42.5090909,20.7698947 42.4421053,20.8821053 42.3635088,20.9943158 C42.3045614,21.0782456 42.2375758,21.1630877 42.1679107,21.2470175 C42.0687719,21.3665263 41.9633812,21.4860351 41.8437002,21.6046316 C41.7713557,21.6767018 41.691866,21.7478596 41.6114833,21.8199298 C41.465008,21.950386 41.3122807,22.0799298 41.1416906,22.2085614 C41.068453,22.2642105 40.9898565,22.3180351 40.9121531,22.3727719 C40.710303,22.5150877 40.4995215,22.6564912 40.2681978,22.7951579 C40.2074641,22.8325614 40.1422648,22.8681404 40.0788517,22.9046316 C39.8135885,23.0578947 39.5349282,23.2093333 39.2348325,23.3580351 C39.1964274,23.377193 39.156236,23.3954386 39.1169378,23.4145965 C38.7820096,23.5760702 38.4318979,23.734807 38.0576715,23.8880702 C38.0469537,23.8926316 38.036236,23.8962807 38.0255183,23.9008421 C35.997193,24.7282807 33.4026156,25.4243509 30.3793301,25.8795789 C30.3641467,25.8814035 30.3489633,25.8832281 30.3337799,25.8859649 C29.7460925,25.9744561 29.1432217,26.0538246 28.5242743,26.1222456 C28.4233493,26.133193 28.3170654,26.1404912 28.2152472,26.1514386 C27.6748963,26.2089123 27.1274003,26.2618246 26.565614,26.3037895 C26.3083892,26.3229474 26.0386603,26.3329825 25.7769697,26.3484912 C25.3536204,26.3740351 24.9347368,26.4023158 24.5006699,26.4187368 C23.790622,26.4415439 23.067177,26.4561404 22.3285486,26.4561404 C21.5899203,26.4561404 20.8664753,26.4415439 20.1564274,26.416 C19.7223604,26.3995789 19.3034769,26.3712982 18.8801276,26.3457544 C18.618437,26.3302456 18.3487081,26.3202105 18.0914833,26.3010526 C17.5288038,26.26 16.982201,26.2061754 16.4418501,26.1487018 C16.3400319,26.1377544 16.233748,26.1304561 16.132823,26.1195088 C15.5138756,26.0501754 14.9110048,25.970807 14.3233174,25.8832281 C14.308134,25.8814035 14.2929506,25.8795789 14.2777671,25.8768421 C11.2544817,25.4207018 8.65990431,24.7246316 6.63157895,23.8981053 C6.62086124,23.8944561 6.61014354,23.8898947 6.59942584,23.8853333 C6.22519936,23.7320702 5.87419458,23.5733333 5.54015949,23.4118596 C5.50175439,23.3927018 5.46066986,23.3744561 5.42226475,23.3552982 C5.12216906,23.2075088 4.84440191,23.0560702 4.57824561,22.9018947 C4.51572568,22.8654035 4.44963317,22.8298246 4.38889952,22.7924211 C4.15757576,22.6537544 3.94679426,22.5123509 3.74494418,22.3700351 C3.66813397,22.3152982 3.58864434,22.2605614 3.5154067,22.2058246 C3.34481659,22.077193 3.19208931,21.9476491 3.04561404,21.817193 C2.9661244,21.7451228 2.88663477,21.6739649 2.81339713,21.6018947 C2.69371611,21.4832982 2.58832536,21.3637895 2.4891866,21.2442807 C2.41952153,21.1603509 2.35253589,21.0755088 2.29358852,20.9915789 C2.21499203,20.8793684 2.14800638,20.7671579 2.08816587,20.6549474 C2.0399362,20.5646316 1.99706539,20.4743158 1.96044657,20.384 C1.91668262,20.273614 1.88185008,20.1632281 1.85684211,20.0537544 C1.82290271,19.9087018 1.78628389,19.7609123 1.78628389,19.6140351 L1.78628389,12.1269474 C1.89346093,12.226386 2.01582137,12.324 2.13192982,12.4225263 C2.19623604,12.4772632 2.25607656,12.532 2.3230622,12.5867368 Z M22.3285486,1.8245614 C34.4350877,1.8245614 42.8708134,5.42989474 42.8708134,8.66666667 C42.8708134,11.9034386 34.4350877,15.5087719 22.3285486,15.5087719 C10.2220096,15.5087719 1.78628389,11.9034386 1.78628389,8.66666667 C1.78628389,5.42989474 10.2220096,1.8245614 22.3285486,1.8245614 Z" id="Shape" fill-rule="nonzero"></path>
                        </g>
                    </g>
                </g>
            </g>
        </g>
    </g>
</svg>