<?xml version="1.0" encoding="UTF-8"?>
<svg width="46px" height="46px" viewBox="0 0 46 46" version="1.1" xmlns="http://www.w3.org/2000/svg" xmlns:xlink="http://www.w3.org/1999/xlink">
    <!-- Generator: Sketch 47.1 (45422) - http://www.bohemiancoding.com/sketch -->
    <title>Teal Equipment 2</title>
    <desc>Created with Sketch.</desc>
    <defs></defs>
    <g id="Symbols" stroke="none" stroke-width="1" fill="none" fill-rule="evenodd">
        <g id="AM-5-6-7" transform="translate(-32.000000, -181.000000)" fill="#60B7C0">
            <g id="Question-6" transform="translate(0.000000, 144.000000)">
                <g id="Teal-Equipment-2" transform="translate(30.000000, 37.000000)">
                    <g id="Page-1" transform="translate(2.777778, 0.696970)">
                        <path d="M43.2199214,37.8571519 L32.9935105,27.1818182 C31.4697557,29.6554109 29.4531185,31.7591394 27.0833333,33.3498335 L37.3106629,44.0250713 C38.9433756,45.7290166 41.5906999,45.7290166 43.2198296,44.0250713 C44.8526341,42.3240988 44.8526341,39.5609054 43.2199214,37.8571519" id="Fill-1"></path>
                        <path d="M17.0139824,29.8824115 C9.97742828,29.8824115 4.25361248,24.1382195 4.25361248,17.0760391 C4.25361248,10.0138587 9.97742828,4.26919747 17.0139824,4.26919747 C24.0503495,4.26919747 29.7746328,10.0138587 29.7746328,17.0760391 C29.7746328,24.1382195 24.0503495,29.8824115 17.0139824,29.8824115 M34.0277778,17.0759453 C34.0277778,7.64600307 26.4098935,0 17.0139824,0 C7.61825829,0 0,7.64600307 0,17.0759453 C0,26.5058875 7.61825829,34.1515152 17.0139824,34.1515152 C26.4098935,34.1515152 34.0277778,26.5058875 34.0277778,17.0759453" id="Fill-4"></path>
                        <path d="M7.63888889,17.4242424 L10.4163788,17.4242424 C10.4163788,13.581207 13.5320552,10.4545061 17.3611111,10.4545061 L17.3611111,7.66666667 C12.0009642,7.66666667 7.63888889,12.0445628 7.63888889,17.4242424" id="Fill-6"></path>
                    </g>
                </g>
            </g>
        </g>
    </g>
</svg>