<?xml version="1.0" encoding="UTF-8"?>
<svg width="50px" height="50px" viewBox="0 0 50 50" version="1.1" xmlns="http://www.w3.org/2000/svg" xmlns:xlink="http://www.w3.org/1999/xlink">
    <!-- Generator: Sketch 47.1 (45422) - http://www.bohemiancoding.com/sketch -->
    <title>Teal Growth</title>
    <desc>Created with Sketch.</desc>
    <defs></defs>
    <g id="Symbols" stroke="none" stroke-width="1" fill="none" fill-rule="evenodd">
        <g id="AM-Question-2" transform="translate(-25.000000, -35.000000)" fill="#60B7C0">
            <g id="Question-2">
                <g id="Teal-Growth" transform="translate(25.000000, 35.000000)">
                    <g id="growth">
                        <path d="M47.8872467,45.7928803 L44.1722088,45.7928803 L44.1722088,10.4368932 C44.1722088,9.28398058 43.2128309,8.33333333 42.04933,8.33333333 C40.8858291,8.33333333 39.9264512,9.28398058 39.9264512,10.4368932 L39.9264512,45.7928803 L32.812766,45.7928803 L32.812766,19.1747573 C32.812766,18.0218447 31.8533881,17.0711974 30.6898872,17.0711974 C29.5263863,17.0711974 28.5670084,18.0218447 28.5670084,19.1747573 L28.5670084,45.7928803 L21.3512617,45.7928803 L21.3512617,29.480178 C21.3512617,28.3272654 20.3918838,27.3766181 19.2283829,27.3766181 C18.0648821,27.3766181 17.1055041,28.3272654 17.1055041,29.480178 L17.1055041,45.7928803 L9.99181894,45.7928803 L9.99181894,33.0602751 C9.99181894,31.9073625 9.03244103,30.9567152 7.86894015,30.9567152 C6.70543927,30.9567152 5.74606135,31.9073625 5.74606135,33.0602751 L5.74606135,45.7928803 L2.1228788,45.7928803 C0.959377917,45.7928803 0,46.7435275 0,47.8964401 C0,49.0493528 0.959377917,50 2.1228788,50 L47.774979,50 C48.9384799,50 49.9999193,49.0493528 49.9999193,47.8964401 C50.0101255,46.7334142 49.0507475,45.7928803 47.8872467,45.7928803 Z" id="Shape" fill-rule="nonzero"></path>
                        <path d="M5.59806553,21.8922388 C6.21543069,21.7900818 20.4350709,18.4495489 31.3958326,7.35530188 L31.3958326,11.4722278 C31.3958326,12.6368173 32.3471822,13.5970928 33.5009466,13.5970928 C34.654711,13.5970928 35.6060606,12.6368173 35.6060606,11.3700708 L35.6060606,2.12486499 C35.6060606,0.960275523 34.654711,0 33.5009466,0 L24.2404692,0 C23.0867048,0 22.1353552,0.960275523 22.1353552,2.12486499 C22.1353552,3.28945445 23.0867048,4.24972998 24.2404692,4.24972998 L28.5822668,4.24972998 C18.5222509,14.6901724 4.75804408,17.9591954 4.65683668,17.9591954 C3.49295154,18.1737251 2.86546564,19.2361576 3.06788044,20.400747 C3.39174414,21.7594347 4.81876852,22.1578469 5.59806553,21.8922388 Z" id="Shape" fill-rule="nonzero"></path>
                    </g>
                </g>
            </g>
        </g>
    </g>
</svg>