<?xml version="1.0" encoding="UTF-8"?>
<svg width="72px" height="79px" viewBox="0 0 72 79" version="1.1" xmlns="http://www.w3.org/2000/svg" xmlns:xlink="http://www.w3.org/1999/xlink">
    <!-- Generator: Sketch 47.1 (45422) - http://www.bohemiancoding.com/sketch -->
    <title>Teal Hospital</title>
    <desc>Created with Sketch.</desc>
    <defs></defs>
    <g id="Symbols" stroke="none" stroke-width="1" fill="none" fill-rule="evenodd">
        <g id="AM-Question-1" transform="translate(-25.000000, -20.000000)" fill="#60B7C0">
            <g id="Question-1">
                <g id="Teal-Hospital" transform="translate(25.000000, 20.000000)">
                    <path d="M28.127457,62.4669712 L28.127457,75.7047885 L43.5059186,75.7047885 L43.5059186,62.4669712 L38.7874751,62.4669712 L37.9208688,62.4669712 L33.713267,62.4669712 L33.2115475,62.4669712 L28.127457,62.4669712 Z M50.7352398,52.3131923 L57.2325068,52.3131923 L57.2325068,45.6657981 L50.7352398,45.6657981 L50.7352398,52.3131923 Z M32.5448688,52.3131923 L39.0421357,52.3131923 L39.0421357,45.6657981 L32.5448688,45.6657981 L32.5448688,52.3131923 Z M14.3537376,52.3131923 L20.8510045,52.3131923 L20.8510045,45.6657981 L14.3537376,45.6657981 L14.3537376,52.3131923 Z M49.1114932,42.3417212 L58.8570136,42.3417212 C59.7540271,42.3417212 60.4815204,43.0869038 60.4815204,44.0037596 L60.4815204,53.9752308 C60.4815204,54.8943654 59.7540271,55.6372692 58.8570136,55.6372692 L49.1114932,55.6372692 C48.2144796,55.6372692 47.4869864,54.8943654 47.4869864,53.9752308 L47.4869864,44.0037596 C47.4869864,43.0869038 48.2144796,42.3417212 49.1114932,42.3417212 L49.1114932,42.3417212 Z M30.920362,42.3417212 L40.6658824,42.3417212 C41.5628959,42.3417212 42.2903891,43.0869038 42.2903891,44.0037596 L42.2903891,53.9752308 C42.2903891,54.8943654 41.5628959,55.6372692 40.6658824,55.6372692 L30.920362,55.6372692 C30.0233484,55.6372692 29.2958552,54.8943654 29.2958552,53.9752308 L29.2958552,44.0037596 C29.2958552,43.0869038 30.0233484,42.3417212 30.920362,42.3417212 L30.920362,42.3417212 Z M12.7292308,42.3417212 L22.4747511,42.3417212 C23.3717647,42.3417212 24.0992579,43.0869038 24.0992579,44.0037596 L24.0992579,53.9752308 C24.0992579,54.8943654 23.3717647,55.6372692 22.4747511,55.6372692 L12.7292308,55.6372692 C11.8322172,55.6372692 11.104724,54.8943654 11.104724,53.9752308 L11.104724,44.0037596 C11.104724,43.0869038 11.8322172,42.3417212 12.7292308,42.3417212 L12.7292308,42.3417212 Z M50.7352398,35.8105481 L57.2325068,35.8105481 L57.2325068,29.1631538 L50.7352398,29.1631538 L50.7352398,35.8105481 Z M32.5448688,35.8105481 L39.0421357,35.8105481 L39.0421357,29.1631538 L32.5448688,29.1631538 L32.5448688,35.8105481 Z M14.3537376,35.8105481 L20.8510045,35.8105481 L20.8510045,29.1631538 L14.3537376,29.1631538 L14.3537376,35.8105481 Z M49.1114932,25.8390769 L58.8570136,25.8390769 C59.7540271,25.8390769 60.4815204,26.5850192 60.4815204,27.501875 L60.4815204,37.4733462 C60.4815204,38.3924808 59.7540271,39.134625 58.8570136,39.134625 L49.1114932,39.134625 C48.2144796,39.134625 47.4869864,38.3924808 47.4869864,37.4733462 L47.4869864,27.501875 C47.4869864,26.5850192 48.2144796,25.8390769 49.1114932,25.8390769 L49.1114932,25.8390769 Z M30.920362,25.8390769 L40.6658824,25.8390769 C41.5628959,25.8390769 42.2903891,26.5850192 42.2903891,27.501875 L42.2903891,37.4733462 C42.2903891,38.3924808 41.5628959,39.134625 40.6658824,39.134625 L30.920362,39.134625 C30.0233484,39.134625 29.2958552,38.3924808 29.2958552,37.4733462 L29.2958552,27.501875 C29.2958552,26.5850192 30.0233484,25.8390769 30.920362,25.8390769 L30.920362,25.8390769 Z M12.7292308,25.8390769 L22.4747511,25.8390769 C23.3717647,25.8390769 24.0992579,26.5850192 24.0992579,27.501875 L24.0992579,37.4733462 C24.0992579,38.3924808 23.3717647,39.134625 22.4747511,39.134625 L12.7292308,39.134625 C11.8322172,39.134625 11.104724,38.3924808 11.104724,37.4733462 L11.104724,27.501875 C11.104724,26.5850192 11.8322172,25.8390769 12.7292308,25.8390769 L12.7292308,25.8390769 Z M6.49346606,22.4056154 L6.49346606,75.7047885 L8.61437104,75.7047885 L24.8792036,75.7047885 L24.8792036,60.8049327 C24.8792036,59.8880769 25.6066968,59.1436538 26.5029502,59.1436538 L33.2115475,59.1436538 L33.713267,59.1436538 L37.9208688,59.1436538 L38.7874751,59.1436538 L45.1304253,59.1436538 C46.0274389,59.1436538 46.7549321,59.8880769 46.7549321,60.8049327 L46.7549321,75.7047885 L62.8859729,75.7047885 L65.0061176,75.7047885 L65.0061176,22.4056154 L62.8859729,22.4056154 L8.61437104,22.4056154 L6.49346606,22.4056154 Z M34.1929412,5.89157692 L37.4404344,5.89157692 L37.4404344,9.29085577 L40.7631855,9.29085577 L40.7631855,12.6149327 L37.4404344,12.6149327 L37.4404344,16.0149712 L34.1929412,16.0149712 L34.1929412,12.6149327 L30.87019,12.6149327 L30.87019,9.29085577 L34.1929412,9.29085577 L34.1929412,5.89157692 Z M28.127457,3.32407692 L28.127457,19.1711731 L43.5059186,19.1711731 L43.5059186,3.32407692 L38.7874751,3.32407692 L37.9208688,3.32407692 L33.713267,3.32407692 L33.2115475,3.32407692 L28.127457,3.32407692 Z M26.5029502,0 L33.2115475,0 L33.713267,0 L37.9208688,0 L38.7874751,0 L45.1304253,0 C46.0274389,0 46.7549321,0.744423077 46.7549321,1.66127885 L46.7549321,19.1711731 L64.9597466,19.1711731 C66.7530136,19.1711731 68.2087602,20.6615385 68.2087602,22.49525 L68.2087602,23.7083558 L68.1973575,23.7083558 L68.1973575,52.920125 L68.2087602,52.920125 L68.2087602,75.6759231 L69.8325068,75.6759231 C70.7295204,75.6759231 71.4570136,76.4211058 71.4570136,77.3379615 C71.4570136,78.2570962 70.7295204,79 69.8325068,79 L46.7549321,79 L43.5059186,79 L28.127457,79 L24.8792036,79 L1.62450679,79 C0.727493213,79 0,78.2570962 0,77.3379615 C0,76.4211058 0.727493213,75.6759231 1.62450679,75.6759231 L3.24825339,75.6759231 L3.24825339,32.4667212 L3.24673303,32.4667212 L3.24673303,29.1426442 L3.24825339,29.1426442 L3.24825339,22.49525 C3.24825339,20.6615385 4.70095928,19.1711731 6.49726697,19.1711731 L24.8792036,19.1711731 L24.8792036,1.66127885 C24.8792036,0.744423077 25.6066968,0 26.5029502,0 L26.5029502,0 Z" id="Hospital"></path>
                </g>
            </g>
        </g>
    </g>
</svg>