<?xml version="1.0" encoding="UTF-8"?>
<svg width="52px" height="37px" viewBox="0 0 52 37" version="1.1" xmlns="http://www.w3.org/2000/svg" xmlns:xlink="http://www.w3.org/1999/xlink">
    <!-- Generator: Sketch 47.1 (45422) - http://www.bohemiancoding.com/sketch -->
    <title>Teal Money</title>
    <desc>Created with Sketch.</desc>
    <defs></defs>
    <g id="V3" stroke="none" stroke-width="1" fill="none" fill-rule="evenodd">
        <g id="Asset-Management" transform="translate(-459.000000, -1298.000000)" fill="#60B7C0">
            <g id="7-Questions" transform="translate(429.000000, 740.000000)">
                <g id="Question-4" transform="translate(0.000000, 517.000000)">
                    <g id="Teal-Money" transform="translate(30.000000, 41.000000)">
                        <path d="M23.8715455,20.1817097 C23.8715455,20.4335484 23.9270909,20.6477903 24.0305,20.8274194 C24.1362727,21.0058548 24.2715909,21.1568387 24.4370455,21.2833548 C24.6007273,21.4086774 24.7915909,21.5095323 25.0078636,21.5895 C25.2247273,21.668871 25.3092273,21.7339194 25.5302273,21.7864355 L25.5302273,18.6402419 C24.96,18.6402419 24.6539091,18.7601935 24.3413182,18.9965161 C24.0281364,19.2310484 23.8715455,19.6267097 23.8715455,20.1817097 L23.8715455,20.1817097 Z M27.6870455,24.4575968 C27.5038636,24.322129 27.2946818,24.2123226 27.0636364,24.1281774 C26.8302273,24.044629 26.7268182,23.9712258 26.4839545,23.9091613 L26.4839545,27.5715645 C27.0541818,27.5291935 27.3886364,27.3644839 27.7520455,27.0750484 C28.1184091,26.7868065 28.301,26.3296774 28.301,25.7012742 C28.301,25.4082581 28.2454545,25.1617903 28.1325909,24.9612742 C28.0215,24.7625484 27.8749545,24.5948548 27.6870455,24.4575968 L27.6870455,24.4575968 Z M29.8155,26.9807581 C29.6205,27.4175968 29.3528182,27.7774516 29.0136364,28.0668871 C28.6744545,28.3545323 28.2797273,28.5741452 27.8241364,28.7257258 C27.3697273,28.8785 27.0128182,28.9662258 26.4839545,28.9865161 L26.4839545,30.0607097 L25.5302273,30.0607097 L25.5302273,28.9865161 C24.96,28.9745806 24.57,28.8856613 24.0955,28.7197581 C23.6186364,28.5496774 23.2120909,28.3115645 22.8729091,28.0030323 C22.5355,27.6950968 22.2731364,27.3143548 22.0875909,26.8637903 C21.9026364,26.4132258 21.8157727,25.894629 21.8252273,25.3091935 L23.6357727,25.3091935 C23.6233636,25.9990645 23.7775909,26.5439194 24.0955,26.9431613 C24.4110455,27.3406129 24.8004545,27.5494839 25.5302273,27.5715645 L25.5302273,23.767129 C25.0970909,23.6501613 24.8004545,23.5117097 24.3726364,23.3493871 C23.9436364,23.1882581 23.5589545,22.9775968 23.2144545,22.7203871 C22.8705455,22.4649677 22.5934091,22.1433065 22.3818636,21.7548065 C22.1697273,21.3669032 22.0633636,20.8841129 22.0633636,20.3070323 C22.0633636,19.8051452 22.1620455,19.3629355 22.3570455,18.9792097 C22.5544091,18.597871 22.8173636,18.2774032 23.1518182,18.0201935 C23.4839091,17.7629839 23.8668182,17.5678387 24.3005455,17.4311774 C24.7336818,17.2957097 25.0533636,17.2270806 25.5302273,17.2270806 L25.5302273,16.1958548 L26.4839545,16.1958548 L26.4839545,17.2270806 C26.9608182,17.2270806 27.2734091,17.2885484 27.6970909,17.4150645 C28.1201818,17.5403871 28.4889091,17.7289677 28.7997273,17.982 C29.1123182,18.2320484 29.3605,18.5531129 29.5460455,18.9398226 C29.731,19.3289194 29.8225909,19.7794839 29.8225909,20.2933065 L28.015,20.2933065 C27.9931364,19.7568065 27.8530909,19.3492097 27.5960455,19.0651452 C27.3354545,18.7822742 27.0541818,18.6402419 26.4839545,18.6402419 L26.4839545,21.9583065 C26.9608182,22.0866129 27.2899545,22.2310323 27.7455455,22.3987258 C28.1999545,22.5682097 28.6023636,22.7818548 28.9515909,23.0444355 C29.3008182,23.304629 29.5797273,23.629871 29.7918636,24.0171774 C30.0034091,24.4062742 30.1091818,24.8825 30.1091818,25.4494355 C30.1091818,26.0354677 30.0105,26.5457097 29.8155,26.9807581 L29.8155,26.9807581 Z M26,13.875 C20.7781364,13.875 16.5460455,18.0166129 16.5460455,23.125 C16.5460455,28.2345806 20.7781364,32.375 26,32.375 C31.2212727,32.375 35.4539545,28.2345806 35.4539545,23.125 C35.4539545,18.0166129 31.2212727,13.875 26,13.875 L26,13.875 Z M41.3642273,30.0625 L39,30.0625 C38.3470455,30.0625 37.8181818,30.5799032 37.8181818,31.2184516 C37.8181818,31.857 38.3470455,32.375 39,32.375 L41.3642273,32.375 C42.016,32.375 42.5460455,31.857 42.5460455,31.2184516 C42.5460455,30.5799032 42.016,30.0625 41.3642273,30.0625 L41.3642273,30.0625 Z M48.4539545,13.875 C47.801,13.875 47.2715455,13.357 47.2715455,12.7184516 C47.2715455,12.0799032 47.801,11.5625 48.4539545,11.5625 C49.1086818,11.5625 49.6357727,12.0799032 49.6357727,12.7184516 C49.6357727,13.357 49.1086818,13.875 48.4539545,13.875 L48.4539545,13.875 Z M49.6357727,30.2743548 C49.2652727,30.1460484 48.8705455,30.0625 48.4539545,30.0625 C46.4962727,30.0625 44.9102727,31.6159032 44.9102727,33.5309516 C44.9102727,33.9391452 44.9941818,34.3240645 45.1265455,34.6875 L6.87286364,34.6875 C7.00522727,34.3240645 7.08972727,33.9391452 7.08972727,33.5309516 C7.08972727,31.6159032 5.50313636,30.0625 3.54604545,30.0625 C3.12886364,30.0625 2.73413636,30.1460484 2.36422727,30.2743548 L2.36422727,15.9750484 C2.73413636,16.1051452 3.12886364,16.1875 3.54604545,16.1875 C5.50313636,16.1875 7.08972727,14.6352903 7.08972727,12.7184516 C7.08972727,12.3108548 7.00522727,11.9253387 6.87286364,11.5625 L45.1265455,11.5625 C44.9941818,11.9253387 44.9102727,12.3108548 44.9102727,12.7184516 C44.9102727,14.6352903 46.4962727,16.1875 48.4539545,16.1875 C48.8705455,16.1875 49.2652727,16.1051452 49.6357727,15.9750484 L49.6357727,30.2743548 Z M48.4539545,34.6875 C47.801,34.6875 47.2715455,34.1695 47.2715455,33.5309516 C47.2715455,32.8941935 47.801,32.375 48.4539545,32.375 C49.1086818,32.375 49.6357727,32.8941935 49.6357727,33.5309516 C49.6357727,34.1695 49.1086818,34.6875 48.4539545,34.6875 L48.4539545,34.6875 Z M3.54604545,34.6875 C2.89072727,34.6875 2.36422727,34.1695 2.36422727,33.5309516 C2.36422727,32.8941935 2.89072727,32.375 3.54604545,32.375 C4.19840909,32.375 4.72845455,32.8941935 4.72845455,33.5309516 C4.72845455,34.1695 4.19840909,34.6875 3.54604545,34.6875 L3.54604545,34.6875 Z M3.54604545,11.5625 C4.19840909,11.5625 4.72845455,12.0799032 4.72845455,12.7184516 C4.72845455,13.357 4.19840909,13.875 3.54604545,13.875 C2.89072727,13.875 2.36422727,13.357 2.36422727,12.7184516 C2.36422727,12.0799032 2.89072727,11.5625 3.54604545,11.5625 L3.54604545,11.5625 Z M49.6357727,9.25 L2.36422727,9.25 C1.0595,9.25 0,10.2842097 0,11.5625 L0,34.6875 C0,35.9651935 1.0595,37 2.36422727,37 L49.6357727,37 C50.9405,37 52,35.9651935 52,34.6875 L52,11.5625 C52,10.2842097 50.9405,9.25 49.6357727,9.25 L49.6357727,9.25 Z M5.91027273,6.9375 L46.0897273,6.9375 C46.7444545,6.9375 47.2715455,6.4195 47.2715455,5.78274194 C47.2715455,5.14240323 46.7444545,4.625 46.0897273,4.625 L5.91027273,4.625 C5.25495455,4.625 4.72845455,5.14240323 4.72845455,5.78274194 C4.72845455,6.4195 5.25495455,6.9375 5.91027273,6.9375 L5.91027273,6.9375 Z M10.6357727,2.3125 L41.3642273,2.3125 C42.016,2.3125 42.5460455,1.7945 42.5460455,1.15595161 C42.5460455,0.517403226 42.016,0 41.3642273,0 L10.6357727,0 C9.98340909,0 9.45395455,0.517403226 9.45395455,1.15595161 C9.45395455,1.7945 9.98340909,2.3125 10.6357727,2.3125 L10.6357727,2.3125 Z M13,13.875 L10.6357727,13.875 C9.98340909,13.875 9.45395455,14.3941935 9.45395455,15.0309516 C9.45395455,15.6695 9.98340909,16.1875 10.6357727,16.1875 L13,16.1875 C13.6523636,16.1875 14.1818182,15.6695 14.1818182,15.0309516 C14.1818182,14.3941935 13.6523636,13.875 13,13.875 L13,13.875 Z" id="Money"></path>
                    </g>
                </g>
            </g>
        </g>
    </g>
</svg>