<?xml version="1.0" encoding="UTF-8"?>
<svg width="64px" height="61px" viewBox="0 0 64 61" version="1.1" xmlns="http://www.w3.org/2000/svg" xmlns:xlink="http://www.w3.org/1999/xlink">
    <!-- Generator: Sketch 47.1 (45422) - http://www.bohemiancoding.com/sketch -->
    <title>product</title>
    <desc>Created with Sketch.</desc>
    <defs></defs>
    <g id="Symbols" stroke="none" stroke-width="1" fill="none" fill-rule="evenodd">
        <g id="3---Product-?" transform="translate(-108.000000, -38.000000)" fill-rule="nonzero" fill="#60B7C0">
            <g id="?3">
                <path d="M157.797379,63.1861139 L159.31506,61.6684324 C164.743815,56.2394273 164.745565,47.4550735 159.318935,42.0280683 C156.690554,39.4000618 153.196711,38 149.479754,38 C149.478129,38 149.476004,38 149.474504,38 C145.756297,38 142.259955,39.4035617 139.629573,42.033818 L112.084566,69.5557016 C109.45031,72.1898328 107.999875,75.6758006 108,79.3933829 C108.000375,83.1085903 109.44881,86.6095574 112.078691,89.2393138 C114.707697,91.8685702 118.20229,93.3251295 121.918497,93.3251295 C121.920247,93.3251295 121.921497,93.3251295 121.923372,93.3251295 C125.637454,93.3251295 129.129422,91.8665703 131.755303,89.2406887 L136.236226,84.7533911 C138.022771,92.8642753 145.263444,98.9500008 153.903304,98.9500008 C163.880229,98.9500008 171.996988,90.831617 171.996988,80.854692 C171.997113,72.2148317 165.908388,64.9725334 157.797379,63.1861139 Z M141.598235,44.0022293 C143.703015,41.8973242 146.500513,40.7836244 149.475629,40.7836244 C149.477129,40.7836244 149.478379,40.7836244 149.479879,40.7836244 C152.45312,40.7836244 155.248369,41.8943243 157.350524,43.9964795 C161.691953,48.3377837 161.690328,55.3799661 157.346649,59.7235201 L154.277538,62.7807572 C154.152668,62.7781323 154.028799,62.7655079 153.903429,62.7655079 C148.354305,62.7655079 143.383029,65.2757697 140.061304,69.2212167 L128.198339,57.3803758 L141.598235,44.0022293 Z M135.809621,80.853567 C135.809621,80.9791864 135.81662,81.1089305 135.81912,81.2337999 L129.786767,87.2720275 C127.686487,89.3725578 124.893988,90.54138 121.922997,90.54138 C121.921872,90.54138 121.920497,90.54138 121.919122,90.54138 C118.946256,90.54138 116.150507,89.3686829 114.046977,87.2650278 C111.942697,85.1611227 110.783874,82.3593741 110.783499,79.3877581 C110.783374,76.4137673 111.944197,73.6116437 114.052727,71.5034888 L126.229803,59.3250381 L138.415003,71.5094885 C136.762453,74.2388654 135.809621,77.4367212 135.809621,80.853567 Z M153.903429,96.1632515 C145.461435,96.1632515 138.59337,89.2951863 138.59337,80.853192 C138.59337,77.1322349 139.928935,73.7182639 142.144085,71.0621337 L163.694488,92.6124116 C161.038358,94.8276867 157.624387,96.1632515 153.903429,96.1632515 Z M165.662649,90.6442504 L144.112371,69.0938475 C146.768376,66.8786974 150.182597,65.5431326 153.903429,65.5431326 C162.345424,65.5431326 169.213489,72.4111978 169.213489,80.853192 C169.213489,84.5741492 167.878049,87.9881202 165.662649,90.6442504 Z" id="product"></path>
            </g>
        </g>
    </g>
</svg>