<?xml version="1.0" encoding="UTF-8"?>
<svg width="43px" height="70px" viewBox="0 0 43 70" version="1.1" xmlns="http://www.w3.org/2000/svg" xmlns:xlink="http://www.w3.org/1999/xlink">
    <!-- Generator: Sketch 47.1 (45422) - http://www.bohemiancoding.com/sketch -->
    <title>refrigerator</title>
    <desc>Created with Sketch.</desc>
    <defs></defs>
    <g id="Symbols" stroke="none" stroke-width="1" fill="none" fill-rule="evenodd">
        <g id="1--Fridge-?" transform="translate(-116.000000, -35.000000)" fill-rule="nonzero" fill="#60B7C0">
            <g id="refrigerator">
                <g transform="translate(116.000000, 35.000000)">
                    <path d="M37.3753016,0 L5.58984127,0 C2.94819048,0 0.80015873,2.14803175 0.80015873,4.78968254 L0.80015873,61.8556508 C0.80015873,64.4973016 2.94819048,66.6453333 5.58984127,66.6453333 L5.95949206,66.6453333 C5.95949206,67.3147619 5.95949206,67.9830635 5.95949206,68.6524921 C5.95949206,70.4658095 8.77695238,70.4680635 8.77695238,68.6524921 C8.77695238,67.9830635 8.77695238,67.3147619 8.77695238,66.6453333 L34.3583651,66.6453333 C34.3583651,67.3147619 34.3583651,67.9830635 34.3583651,68.6524921 C34.3583651,70.4658095 37.1758254,70.4680635 37.1758254,68.6524921 C37.1758254,67.9830635 37.1758254,67.3147619 37.1758254,66.6453333 L37.3753016,66.6453333 C40.0169524,66.6453333 42.1649841,64.4973016 42.1649841,61.8556508 L42.1649841,4.78968254 C42.1649841,2.14803175 40.0169524,0 37.3753016,0 Z M5.58984127,2.81746032 L37.3753016,2.81746032 C38.4628413,2.81746032 39.3475238,3.70214286 39.3475238,4.78968254 L39.3475238,24.6820794 L3.61761905,24.6820794 L3.61761905,4.78968254 C3.61761905,3.70214286 4.50230159,2.81746032 5.58984127,2.81746032 Z M37.3753016,63.827873 L5.58984127,63.827873 C4.50230159,63.827873 3.61761905,62.9431905 3.61761905,61.8556508 L3.61761905,27.4995397 L39.3475238,27.4995397 L39.3475238,61.8545238 C39.3475238,62.9431905 38.4628413,63.827873 37.3753016,63.827873 Z" id="Shape"></path>
                    <path d="M7.34342857,32.6926825 C7.34342857,35.2419206 7.34342857,37.7911587 7.34342857,40.3392698 C7.34342857,42.1525873 10.1608889,42.1548413 10.1608889,40.3392698 C10.1608889,37.7900317 10.1608889,35.2407937 10.1608889,32.6926825 C10.1608889,30.8804921 7.34342857,30.8771111 7.34342857,32.6926825 Z" id="Shape"></path>
                    <path d="M10.1608889,20.2282381 C10.1608889,17.679 10.1608889,15.1297619 10.1608889,12.5816508 C10.1608889,10.7683333 7.34342857,10.7660794 7.34342857,12.5816508 C7.34342857,15.1308889 7.34342857,17.680127 7.34342857,20.2282381 C7.34342857,22.0404286 10.1608889,22.0438095 10.1608889,20.2282381 Z" id="Shape"></path>
                </g>
            </g>
        </g>
    </g>
</svg>