<?xml version="1.0" encoding="UTF-8"?>
<svg width="50px" height="45px" viewBox="0 0 50 45" version="1.1" xmlns="http://www.w3.org/2000/svg" xmlns:xlink="http://www.w3.org/1999/xlink">
    <!-- Generator: Sketch 47.1 (45422) - http://www.bohemiancoding.com/sketch -->
    <title>Teal Shrinkage</title>
    <desc>Created with Sketch.</desc>
    <defs></defs>
    <g id="Symbols" stroke="none" stroke-width="1" fill="none" fill-rule="evenodd">
        <g id="AM-5-6-7" transform="translate(-30.000000, -38.000000)" fill="#60B7C0">
            <g id="Question-5">
                <g id="Teal-Shrinkage" transform="translate(30.000000, 38.000000)">
                    <path d="M33.3489099,20.955222 C32.7166877,20.955222 32.2041189,21.6342943 32.2041189,22.4723071 C32.2041189,23.3103198 32.7166877,23.9893921 33.3489099,23.9893921 C33.981132,23.9893921 34.4941051,23.3103198 34.4941051,22.4723071 C34.4941051,21.6342943 33.981132,20.955222 33.3489099,20.955222 L33.3489099,20.955222 Z M15.8928683,11.8241108 C16.1612797,11.8241108 16.4022033,11.932795 16.5800663,12.1068533 L26.266324,21.733581 C26.4417616,21.9076393 26.5505006,22.1470715 26.5505006,22.4138791 C26.5505006,22.6806866 26.4417616,22.9213446 26.266324,23.0958114 L16.5780451,32.7213134 C16.4022033,32.897006 16.1612797,33.0036473 15.8928683,33.0036473 C15.3584708,33.0036473 14.9243234,32.5729962 14.9243234,32.0410154 L14.9243234,24.1953201 L0,24.1953201 L0,20.6328466 L14.9243234,20.6328466 L14.9243234,12.7871513 C14.9243234,12.2551705 15.3584708,11.8241108 15.8928683,11.8241108 L15.8928683,11.8241108 Z M30.2318607,0 L49.3165615,3.4766702 L49.3165615,41.4679439 L30.2318607,44.9446141 L30.2318607,41.4679439 L19.608184,41.4679439 L19.608184,35.1556772 L22.9799007,35.1556772 L22.9799007,38.2437807 L30.2318607,38.2437807 L30.2318607,6.44750919 L22.9799007,6.44750919 L22.9799007,9.67248955 L19.608184,9.67248955 L19.608184,3.22416318 L30.2318607,3.22416318 L30.2318607,0 Z" id="Shrinkage-Copy"></path>
                </g>
            </g>
        </g>
    </g>
</svg>