<?xml version="1.0" encoding="UTF-8"?>
<svg width="64px" height="66px" viewBox="0 0 64 66" version="1.1" xmlns="http://www.w3.org/2000/svg" xmlns:xlink="http://www.w3.org/1999/xlink">
    <!-- Generator: Sketch 47.1 (45422) - http://www.bohemiancoding.com/sketch -->
    <title>time</title>
    <desc>Created with Sketch.</desc>
    <defs></defs>
    <g id="Symbols" stroke="none" stroke-width="1" fill="none" fill-rule="evenodd">
        <g id="2--Time-?" transform="translate(-108.000000, -39.000000)" fill="#60B7C0">
            <g id="?2">
                <path d="M140.056294,38.999999 C144.438521,38.999999 148.589631,39.939903 152.512594,41.5870198 C156.432594,43.2341302 159.777778,45.5854197 162.660741,48.5260405 C165.543705,51.4666676 167.848888,54.9966195 169.579256,58.9950195 C171.194072,62.8785778 171.999999,67.2305777 171.999999,71.6974256 C171.999999,76.1672879 171.194072,80.4014255 169.579256,84.4028398 C167.848888,88.4012461 165.543705,91.8133292 162.660741,94.75395 C159.777778,97.6945771 156.432594,100.045863 152.512594,101.810846 C148.589631,103.457952 144.438521,104.279999 140.056294,104.279999 C135.561478,104.279999 131.410368,103.457952 127.602963,101.810846 C123.682963,100.045863 120.222221,97.6945771 117.339257,94.75395 C114.456294,91.8133292 112.151111,88.4012461 110.536296,84.4028398 C108.805926,80.4014255 108,76.1672879 108,71.6974256 C108,69.4639985 108.231111,67.2305777 108.693333,65.1119985 C109.037037,62.8785778 109.730371,60.8778674 110.536296,58.9950195 C111.345185,56.9973299 112.382222,55.2323571 113.534815,53.467378 C114.687405,51.7023988 115.955558,50.0552884 117.339257,48.5260405 C119.185184,50.4088884 119.185184,50.4088884 119.185184,50.4088884 C117.801478,51.8202676 116.648889,53.3495092 115.611853,54.8787571 C114.571853,56.5258675 113.65037,58.1729779 112.844445,60.0527986 C112.151111,61.8177778 111.573334,63.582757 111.22963,65.5834673 C110.767407,67.5811569 110.536296,69.5818673 110.536296,71.6974256 C110.536296,75.8167087 111.345185,79.6972399 112.96,83.3420398 C114.456294,86.9898669 116.533331,90.1662253 119.185184,92.9889772 C121.837037,95.575998 124.95111,97.6945771 128.527411,99.3386635 C132.100742,100.867911 135.905183,101.692975 140.056294,101.692975 C144.094815,101.692975 147.899257,100.867911 151.472594,99.3386635 C155.048889,97.6945771 158.162962,95.575998 160.930367,92.9889772 C163.466661,90.1662253 165.543705,86.9898669 167.155551,83.3420398 C168.654815,79.6972399 169.463704,75.8167087 169.463704,71.6974256 C169.463704,67.6990257 168.770367,63.936357 167.271109,60.2885298 C165.771852,56.7615987 163.813337,53.5852404 161.161477,50.8803572 C158.737778,48.1754677 155.739257,46.0568885 152.281478,44.4097781 C148.936294,42.7626678 145.247411,41.8227574 141.327411,41.5870198 C141.327411,54.6430195 141.327411,54.6430195 141.327411,54.6430195 C138.672595,54.6430195 138.672595,54.6430195 138.672595,54.6430195 C138.672595,40.4113782 138.672595,40.4113782 138.672595,40.4113782 C138.788147,40.4113782 138.788147,40.4113782 138.788147,40.4113782 C138.788147,38.999999 138.788147,38.999999 138.788147,38.999999 C139.019257,38.999999 139.250374,38.999999 139.365926,38.999999 C139.597036,38.999999 139.828147,38.999999 140.056294,38.999999 Z M136.829625,73.9338672 C124.835558,58.1729779 124.835558,58.1729779 124.835558,58.1729779 C124.604441,57.9372403 124.604441,57.5836403 124.604441,57.2300403 C124.72,56.8794675 124.835558,56.5258675 125.18222,56.2901299 C125.297779,56.1722675 125.644441,56.0543987 125.872595,56.0543987 C126.219257,56.0543987 126.450368,56.1722675 126.681484,56.2901299 C142.248889,68.4062257 142.248889,68.4062257 142.248889,68.4062257 C142.364441,68.4062257 142.479999,68.5240881 142.595558,68.7567985 C142.939257,69.1103985 143.285926,69.5818673 143.517036,70.0533297 C143.748147,70.5217776 143.979257,70.99324 143.979257,71.6974256 C143.979257,72.168888 143.863705,72.6403568 143.632595,73.2266672 C143.401478,73.6981296 143.170374,74.1695984 142.71111,74.4053296 C142.479999,74.8737776 142.017779,75.1095088 141.555558,75.34524 C140.980742,75.5809776 140.518521,75.69884 140.056294,75.69884 C139.365926,75.69884 138.903705,75.4631088 138.328889,75.2273776 C137.866668,74.8737776 137.404441,74.5231984 137.060742,74.1695984 L136.829625,73.9338672 Z" id="time"></path>
            </g>
        </g>
    </g>
</svg>