<?xml version="1.0" encoding="UTF-8"?>
<svg width="41px" height="67px" viewBox="0 0 41 67" version="1.1" xmlns="http://www.w3.org/2000/svg" xmlns:xlink="http://www.w3.org/1999/xlink">
    <!-- Generator: Sketch 47.1 (45422) - http://www.bohemiancoding.com/sketch -->
    <title>waste</title>
    <desc>Created with Sketch.</desc>
    <defs></defs>
    <g id="Symbols" stroke="none" stroke-width="1" fill="none" fill-rule="evenodd">
        <g id="4---Spoilage-?" transform="translate(-120.000000, -38.000000)" fill-rule="nonzero" fill="#60B7C0">
            <g id="?4">
                <g id="waste" transform="translate(120.000000, 38.000000)">
                    <path d="M7.99965193,15.4024116 C12.2458232,15.4024116 15.6992845,11.9478398 15.6992845,7.70166851 C15.6992845,3.45438674 12.2448978,0 7.99965193,0 C3.75237017,0 0.298538674,3.45531215 0.298538674,7.70166851 C0.298538674,11.9480249 3.75237017,15.4024116 7.99965193,15.4024116 Z" id="Shape"></path>
                    <path d="M40.7693149,42.0926575 L31.7383812,25.109268 C31.3498923,24.3802265 30.4455773,24.104268 29.7196823,24.4923867 C28.9928619,24.8795801 28.7170884,25.7825994 29.1035414,26.5103453 L37.9604972,43.1650276 L37.9604972,63.9746354 L22.8799448,63.9746354 L22.8799448,42.7922707 C22.8799448,41.9682818 22.2117956,41.2999475 21.3878066,41.2999475 C20.5641878,41.2999475 19.8956685,41.9682818 19.8956685,42.7922707 L19.8956685,65.4671436 C19.8956685,66.2909475 20.5641878,66.9592818 21.3878066,66.9592818 L39.4511547,66.9592818 C40.2751436,66.9592818 40.9432928,66.2911326 40.9432928,65.4671436 L40.9432928,42.7922707 C40.9453287,42.5474061 40.8840663,42.3080939 40.7693149,42.0926575 Z" id="Shape"></path>
                    <path d="M29.006558,37.0230525 C30.5166492,37.0230525 31.7428232,38.248116 31.7428232,39.7587624 C31.7428232,41.2708895 30.5166492,42.4950276 29.006558,42.4950276 C27.4949862,42.4950276 26.2708481,41.2708895 26.2708481,39.7587624 C26.270663,38.248116 27.4949862,37.0230525 29.006558,37.0230525 Z" id="Shape"></path>
                    <path d="M22.5145912,36.5042652 C22.8101685,36.8555525 23.2325276,37.0363785 23.6593287,37.0363785 C23.9972901,37.0363785 24.3372873,36.9229227 24.6173177,36.6878674 C25.2486354,36.1581602 25.330442,35.2166436 24.8018453,34.5860663 L14.4529365,22.246221 C14.3661326,22.1427597 14.2645221,22.0592873 14.1580994,21.9845138 C12.7692376,19.9600773 10.4414503,18.6276657 7.80605525,18.6276657 C3.55877348,18.6276657 0.104201657,22.0820525 0.104201657,26.3282238 L0.104201657,65.4669586 C0.104201657,66.2907624 0.772165746,66.9590967 1.59652486,66.9590967 L14.0128094,66.9590967 C14.8375387,66.9590967 15.5051326,66.2909475 15.5051326,65.4669586 L15.5051326,28.146663 L22.5145912,36.5042652 Z" id="Shape"></path>
                </g>
            </g>
        </g>
    </g>
</svg>